<?xml version="1.0" encoding="iso-8859-1"?><!-- Generator: Adobe Illustrator 20.0.0, SVG Export Plug-In . SVG Version: 6.00 Build 0)  --><svg xmlns="http://www.w3.org/2000/svg" xmlns:xlink="http://www.w3.org/1999/xlink" version="1.1" id="Layer_1" x="0px" y="0px" viewBox="0 0 40 40" style="enable-background:new 0 0 40 40;" xml:space="preserve" width="40" height="40">
<path style="fill:none;stroke:#7A4F34;stroke-linecap:round;stroke-miterlimit:10;" d="M24.5,0.5c0,0-2.152,1.819-1.593,5.049"/>
<g>
	<path style="fill:#CEE0A1;" d="M20,38.5c-7.696,0-13.5-5.159-13.5-12c0-13.914,9.695-25,13.5-25c1.453,0,1.864,0.417,2.34,0.9   c0.508,0.516,1.084,1.1,2.66,1.1c3.278,0,4.5,4.586,4.5,7.478c0,3.486,1.028,5.673,2.022,7.787   c1.017,2.164,1.978,4.208,1.978,7.649C33.5,33.304,27.696,38.5,20,38.5z"/>
	<path style="fill:#5E9C76;" d="M20,2c1.243,0,1.538,0.299,1.984,0.751C22.504,3.278,23.215,4,25,4c2.914,0,4,4.28,4,6.977   c0,3.598,1.052,5.836,2.069,8C32.062,21.089,33,23.084,33,26.414C33,33.019,27.411,38,20,38S7,33.056,7,26.5   C7,13.128,16.439,2,20,2 M20,1C15.58,1,6,12.833,6,26.5C6,33.466,11.911,39,20,39s14-5.62,14-12.586c0-7.045-4-8.628-4-15.436   C30,7.494,28.513,3,25,3C22.175,3,23.219,1,20,1L20,1z"/>
</g>
<path style="fill:#FFF7D1;" d="M20,35c-6.207,0-9-3.957-9-8.821c0-13.345,10.02-20.751,10.956-15.457  C23.013,16.705,29,17.144,29,26.179C29,31.043,26.207,35,20,35z"/>
<g>
	<path style="fill:#A6714E;" d="M20,31.5c-2.053,0-4.5-0.78-4.5-4.496c0-3.427,3.434-7.504,4.5-7.504s4.5,4.077,4.5,7.504   C24.5,30.72,22.053,31.5,20,31.5z"/>
	<g>
		<path style="fill:#7A4F34;" d="M20,20.002c0.9,0.181,4,3.801,4,7.001C24,29.693,22.692,31,20,31s-4-1.307-4-3.996    C16,23.803,19.1,20.183,20,20.002 M20,19c-1.5,0-5,4.429-5,8.004S17.125,32,20,32s5-1.421,5-4.996S21.5,19,20,19L20,19z"/>
	</g>
</g>
</svg>