<?xml version="1.0" encoding="iso-8859-1"?><!-- Generator: Adobe Illustrator 20.0.0, SVG Export Plug-In . SVG Version: 6.00 Build 0)  --><svg xmlns="http://www.w3.org/2000/svg" xmlns:xlink="http://www.w3.org/1999/xlink" version="1.1" id="Layer_1" x="0px" y="0px" viewBox="0 0 40 40" style="enable-background:new 0 0 40 40;" xml:space="preserve" width="40" height="40">
<g>
	<g>
		<path style="fill:#BAE0BD;" d="M12.495,38.5c-0.193-14.328-5.299-20.982-6.725-22.564l3.367-3.367    c2.872,3.049,5.228,7.78,7.006,14.076l0.829,2.933l0.836-16.745h4.383l0.836,16.745l0.829-2.933    c1.778-6.295,4.134-11.027,7.006-14.076l3.367,3.367c-1.426,1.582-6.531,8.236-6.725,22.564H12.495z"/>
	</g>
	<g>
		<path style="fill:#5E9C76;" d="M30.879,13.293l2.669,2.669c-1.765,2.124-6.249,8.799-6.534,22.038H12.987    c-0.286-13.239-4.77-19.914-6.534-22.038l2.669-2.669c2.66,2.998,4.858,7.529,6.541,13.488l1.657,5.867l0.304-6.089l0.661-13.226    h3.431l0.661,13.226l0.304,6.089l1.657-5.867C26.02,20.822,28.218,16.291,30.879,13.293 M30.857,11.857    c-3.647,3.647-5.995,9.387-7.482,14.652l-0.709-14.176h-5.333l-0.709,14.176c-1.487-5.265-3.835-11.005-7.482-14.652l-4.071,4.071    c0,0,6.838,6.424,6.929,23.071h16c0.09-16.648,6.929-23.071,6.929-23.071L30.857,11.857L30.857,11.857z"/>
	</g>
</g>
<g>
	<g>
		<path style="fill:#D8F0DA;" d="M21,22.5c-2.171,0-4.19-1.079-5.402-2.886l-0.18-0.269l-0.319,0.054    C14.701,19.467,14.342,19.5,14,19.5c-0.61,0-1.225-0.089-1.826-0.265l-0.232-0.068l-0.197,0.14C10.641,20.087,9.346,20.5,8,20.5    c-3.584,0-6.5-2.916-6.5-6.5c0-2.67,1.604-5.038,4.088-6.032l0.217-0.087L5.877,7.66C6.892,4.573,9.754,2.5,13,2.5    c0.854,0,1.708,0.151,2.536,0.45l0.26,0.094l0.218-0.169C17.168,1.975,18.546,1.5,20,1.5c1.48,0,2.877,0.489,4.039,1.414    l0.229,0.183l0.271-0.111C25.326,2.663,26.154,2.5,27,2.5c2.671,0,5.039,1.605,6.032,4.088l0.086,0.217l0.222,0.073    C36.427,7.892,38.5,10.753,38.5,14c0,4.136-3.364,7.5-7.5,7.5c-1.567,0-3.073-0.485-4.354-1.402l-0.376-0.269l-0.298,0.354    C24.731,21.655,22.919,22.5,21,22.5z"/>
	</g>
	<g>
		<path style="fill:#5E9C76;" d="M20,2c1.366,0,2.655,0.451,3.728,1.305l0.459,0.365l0.543-0.222C25.456,3.151,26.219,3,27,3    c2.465,0,4.65,1.481,5.568,3.774l0.173,0.433l0.443,0.146C36.065,8.299,38,10.97,38,14c0,3.86-3.14,7-7,7    c-1.462,0-2.867-0.453-4.064-1.309l-0.752-0.538l-0.595,0.707C24.444,21.22,22.772,22,21,22c-2.004,0-3.868-0.996-4.987-2.664    l-0.361-0.538l-0.638,0.109C14.647,18.97,14.315,19,14,19c-0.563,0-1.13-0.082-1.686-0.245l-0.464-0.136l-0.394,0.279    C10.437,19.619,9.242,20,8,20c-3.308,0-6-2.692-6-6c0-2.465,1.481-4.65,3.774-5.568l0.433-0.173l0.146-0.443    C7.299,4.935,9.97,3,13,3c0.796,0,1.593,0.141,2.368,0.42l0.518,0.187l0.435-0.339C17.386,2.439,18.659,2,20,2 M20,1    c-1.62,0-3.107,0.556-4.294,1.479C14.86,2.175,13.951,2,13,2C9.454,2,6.452,4.309,5.403,7.503C2.824,8.536,1,11.053,1,14    c0,3.866,3.134,7,7,7c1.503,0,2.893-0.478,4.034-1.285C12.658,19.898,13.317,20,14,20c0.404,0,0.797-0.042,1.183-0.107    C16.439,21.766,18.575,23,21,23c2.149,0,4.07-0.971,5.354-2.495C27.665,21.442,29.266,22,31,22c4.418,0,8-3.582,8-8    c0-3.546-2.309-6.548-5.503-7.597C32.464,3.824,29.947,2,27,2c-0.938,0-1.831,0.188-2.649,0.522C23.156,1.572,21.646,1,20,1L20,1z    "/>
	</g>
</g>
</svg>