<?xml version="1.0" encoding="iso-8859-1"?><!-- Generator: Adobe Illustrator 20.0.0, SVG Export Plug-In . SVG Version: 6.00 Build 0)  --><svg xmlns="http://www.w3.org/2000/svg" xmlns:xlink="http://www.w3.org/1999/xlink" version="1.1" id="Layer_1" x="0px" y="0px" viewBox="0 0 40 40" style="enable-background:new 0 0 40 40;" xml:space="preserve" width="40" height="40">
<polygon style="fill:#5E9C76;" points="3.772,14.566 1,15.929 3.813,17.612 "/>
<polygon style="fill:#5E9C76;" points="3.772,18.637 1,20 3.813,21.684 "/>
<polygon style="fill:#5E9C76;" points="7.379,12.73 7.786,9.143 4.699,11.644 "/>
<polygon style="fill:#5E9C76;" points="4.476,11.382 1.394,10.159 2.886,13.3 "/>
<polygon style="fill:#5E9C76;" points="36.228,21.351 39,22.714 36.187,24.398 "/>
<polygon style="fill:#5E9C76;" points="36.228,25.423 39,26.786 36.187,28.469 "/>
<polygon style="fill:#5E9C76;" points="32.621,19.515 32.214,15.929 35.301,18.43 "/>
<polygon style="fill:#5E9C76;" points="14.5,4.164 11.22,3.303 13.223,6.453 "/>
<polygon style="fill:#5E9C76;" points="13.725,8.949 9.935,10.472 13.928,12.401 "/>
<polygon style="fill:#5E9C76;" points="13.664,15.76 10.275,17.003 13.894,18.642 "/>
<g>
	<path style="fill:#BAE0BD;" d="M14.571,30.357c-0.313,0-0.662-0.021-1.049-0.065c-6.18-0.709-10.665-5.855-10.665-12.238v-4.161   C2.857,12.298,4.155,11,5.75,11s2.893,1.298,2.893,2.893v4.75c0,2.885,0.967,4.969,2.875,6.195   c1.495,0.961,3.153,1.105,4.009,1.105c0.053,0,0.101,0,0.145-0.001c0.553,0.855,1.489,2.669,0.985,3.641   C16.391,30.097,15.689,30.357,14.571,30.357C14.572,30.357,14.572,30.357,14.571,30.357z"/>
	<path style="fill:#5E9C76;" d="M5.75,11.5c1.319,0,2.393,1.073,2.393,2.393v4.75c0,5.681,3.722,7.75,7.253,7.799   c0.591,0.98,1.118,2.327,0.816,2.91c-0.166,0.321-0.764,0.505-1.641,0.505c-0.298,0-0.632-0.021-0.992-0.062   C7.656,29.116,3.357,24.178,3.357,18.054l0-4.161C3.357,12.573,4.431,11.5,5.75,11.5 M5.75,10.5c-1.874,0-3.393,1.519-3.393,3.393   l0,4.161c0,6.759,4.726,12.003,11.108,12.735c0.407,0.047,0.775,0.069,1.106,0.069c5.204,0,1.357-5.429,1.357-5.429   s-0.149,0.014-0.403,0.014c-1.459,0-6.383-0.469-6.383-6.8v-4.75C9.143,12.019,7.624,10.5,5.75,10.5L5.75,10.5z"/>
</g>
<path style="fill:none;stroke:#93CC97;stroke-linecap:round;stroke-miterlimit:10;" d="M5.665,12.557  c0,6.464-0.41,15.586,10.15,15.586"/>
<g>
	<path style="fill:#BAE0BD;" d="M26.786,34.429c-1.236,0-2.231-0.337-2.878-0.974c-0.509-0.501-0.801-1.2-0.801-1.917   c0-0.756,0.36-1.538,0.964-1.538c0.225,0,0.479,0.009,0.753,0.018c0.334,0.011,0.696,0.023,1.072,0.023   c1.351,0,5.461,0,5.461-4.612v-4.75c0-1.595,1.298-2.893,2.893-2.893s2.893,1.298,2.893,2.893v3.393   C37.143,31.226,31.941,34.429,26.786,34.429z"/>
	<path style="fill:#5E9C76;" d="M34.25,18.286c1.319,0,2.393,1.073,2.393,2.393v3.393c0,6.809-4.951,9.857-9.857,9.857   c-1.102,0-1.975-0.287-2.526-0.83c-0.414-0.408-0.652-0.977-0.652-1.561c0-0.584,0.249-1.038,0.464-1.038   c0.22,0,0.469,0.008,0.737,0.017c0.339,0.011,0.707,0.023,1.088,0.023c3.955,0,5.961-1.72,5.961-5.112v-4.75   C31.857,19.359,32.931,18.286,34.25,18.286 M34.25,17.286c-1.874,0-3.393,1.519-3.393,3.393c0,0,0,3.393,0,4.75   c0,3.68-2.727,4.112-4.961,4.112c-0.686,0-1.326-0.041-1.825-0.041c-2.126,0-2.488,5.429,2.714,5.429   c5.202,0,10.857-3.242,10.857-10.857v-3.393C37.643,18.805,36.124,17.286,34.25,17.286L34.25,17.286z"/>
</g>
<path style="fill:none;stroke:#93CC97;stroke-linecap:round;stroke-miterlimit:10;" d="M34.165,19.343  c0,6.464,1.11,12.872-8.85,12.872"/>
<g>
	<path style="fill:#BAE0BD;" d="M15.174,38.5L12.655,9.51c-0.179-2.053,0.519-4.102,1.911-5.621C15.959,2.371,17.939,1.5,20,1.5   s4.041,0.871,5.434,2.39c1.393,1.519,2.09,3.568,1.911,5.621L24.826,38.5H15.174z"/>
	<path style="fill:#5E9C76;" d="M20,2c1.949,0,3.748,0.791,5.065,2.228c1.317,1.437,1.95,3.297,1.781,5.239L24.367,38h-8.734   l-2.48-28.533c-0.169-1.942,0.464-3.803,1.781-5.239C16.252,2.791,18.051,2,20,2 M20,1c-4.617,0-8.242,3.954-7.843,8.554L14.716,39   h10.568l2.559-29.446C28.242,4.954,24.617,1,20,1L20,1z"/>
</g>
<polygon style="fill:#5E9C76;" points="26.22,4.576 29.5,3.714 27.498,6.865 "/>
<polygon style="fill:#5E9C76;" points="27.054,8.949 30.844,10.472 26.851,12.401 "/>
<polygon style="fill:#5E9C76;" points="26.939,15.76 30.328,17.003 26.709,18.642 "/>
<polygon style="fill:#5E9C76;" points="26.111,22.354 29.5,23.597 25.881,25.235 "/>
<polygon style="fill:#5E9C76;" points="35.524,18.167 38.606,16.945 37.114,20.086 "/>
<g>
	<path style="fill:#93CC97;" d="M15.475,3.7L17.531,38H19L18.093,2.272C17.13,2.547,16.24,3.027,15.475,3.7z"/>
	<path style="fill:#93CC97;" d="M21.904,2.271L21,38h1.469L24.46,3.648C23.709,3.003,22.842,2.539,21.904,2.271z"/>
</g>
</svg>