<?xml version="1.0" encoding="iso-8859-1"?><!-- Generator: Adobe Illustrator 20.0.0, SVG Export Plug-In . SVG Version: 6.00 Build 0)  --><svg xmlns="http://www.w3.org/2000/svg" xmlns:xlink="http://www.w3.org/1999/xlink" version="1.1" id="Layer_1" x="0px" y="0px" viewBox="0 0 40 40" style="enable-background:new 0 0 40 40;" xml:space="preserve" width="40" height="40">
<g>
	<g>
		<path style="fill:#A6714E;" d="M13.699,38.494c-2.986,0-5.489-0.62-7.438-1.843l-0.268-0.167l-0.267,0.169    c-0.277,0.177-0.598,0.27-0.929,0.27c-0.459,0-0.892-0.179-1.217-0.504c-0.566-0.566-0.665-1.468-0.233-2.145l0.169-0.267    L3.349,33.74c-4.822-7.692,0.553-22.125,6.529-28.102C12.624,2.892,15.79,1.5,19.286,1.5c4.346,0,8.954,2.215,12.977,6.237    c7.437,7.437,8.261,16.223,2.1,22.384C29.589,34.895,20.706,38.494,13.699,38.494L13.699,38.494z"/>
	</g>
	<g>
		<path style="fill:#7A4F34;" d="M19.286,2c4.212,0,8.695,2.163,12.623,6.091c3.377,3.377,5.501,7.272,5.982,10.968    c0.514,3.952-0.829,7.655-3.883,10.71c-4.689,4.689-13.421,8.226-20.309,8.226c-2.89,0-5.304-0.594-7.173-1.766l-0.535-0.336    l-0.533,0.339c-0.197,0.125-0.425,0.192-0.66,0.192c-0.326,0-0.633-0.127-0.863-0.357c-0.402-0.402-0.472-1.043-0.166-1.523    l0.339-0.533l-0.336-0.535c-2.053-3.276-2.336-8.258-0.796-14.031C4.368,14.23,7.148,9.076,10.232,5.992    C12.881,3.343,15.927,2,19.286,2 M19.286,1c-3.428,0-6.796,1.32-9.761,4.285c-6.436,6.436-11.402,21.06-6.6,28.721    c-0.548,0.861-0.45,2.016,0.302,2.768c0.434,0.434,1.002,0.65,1.57,0.65c0.417,0,0.833-0.116,1.197-0.348    c2.136,1.339,4.814,1.919,7.704,1.919c7.476,0,16.375-3.877,21.017-8.518c6.956-6.956,4.857-16.135-2.099-23.091    C28.625,3.392,23.901,1,19.286,1L19.286,1z"/>
	</g>
</g>
<g>
	<path style="fill:#F5CE85;" d="M31.909,8.091C27.981,4.163,23.499,2,19.287,2h-0.001c-0.832,0-1.645,0.084-2.437,0.248   c-0.744,1.307-0.42,3.167,0.896,4.483c0.023,0.023,0.05,0.04,0.074,0.062c-0.226,0.136-0.437,0.3-0.629,0.492   c-1.531,1.531-1.283,4.263,0.555,6.1c0.558,0.558,1.201,0.951,1.866,1.21c-0.285,1.42,0.209,3.082,1.462,4.336   c1.253,1.253,2.915,1.747,4.336,1.462c0.26,0.664,0.652,1.307,1.21,1.866c1.838,1.838,4.569,2.086,6.1,0.555   c0.192-0.192,0.356-0.403,0.492-0.628c0.023,0.024,0.039,0.051,0.062,0.074c1.324,1.324,3.221,1.606,4.481,0.757   c0.254-1.28,0.313-2.603,0.136-3.958C37.411,15.363,35.286,11.468,31.909,8.091z"/>
</g>
<g>
	
		<ellipse transform="matrix(0.7071 -0.7071 0.7071 0.7071 1.1831 23.9215)" style="fill:#7A4F34;" cx="29.467" cy="10.533" rx="1.484" ry="2.969"/>
</g>
</svg>