<?xml version="1.0" encoding="iso-8859-1"?><!-- Generator: Adobe Illustrator 20.0.0, SVG Export Plug-In . SVG Version: 6.00 Build 0)  --><svg xmlns="http://www.w3.org/2000/svg" xmlns:xlink="http://www.w3.org/1999/xlink" version="1.1" id="Layer_1" x="0px" y="0px" viewBox="0 0 40 40" style="enable-background:new 0 0 40 40;" xml:space="preserve" width="40" height="40">
<path style="fill:none;stroke:#7A4F34;stroke-linecap:round;stroke-linejoin:round;stroke-miterlimit:10;" d="M30.803,8.619  C34.711,4.711,38.5,4.575,38.5,1.5"/>
<g>
	<path style="fill:#F5CE85;" d="M12.773,38.5c-2.062,0-4.1-0.311-6.228-0.951c-0.155-0.047-0.323-0.071-0.499-0.071   c-0.529,0-1.067,0.214-1.588,0.421c-0.461,0.184-0.938,0.373-1.33,0.373l0,0c-0.218,0-0.505-0.049-0.792-0.437   c-0.536-0.723-0.231-1.316,0.333-2.208c0.353-0.557,0.718-1.133,0.481-1.718l-0.075-0.184c-4.827-11.84,2.544-21.064,9.578-26.718   L14.9,5.245l20.788,18.11l-2.801,3.705C26.828,34.647,20.058,38.5,12.773,38.5z"/>
	<path style="fill:#967A44;" d="M14.884,5.894l20.124,17.531l-2.503,3.312C26.537,34.211,19.898,38,12.773,38   c-2.013,0-4.003-0.304-6.082-0.929c-0.203-0.062-0.42-0.093-0.645-0.093c-0.625,0-1.209,0.232-1.773,0.456   c-0.418,0.166-0.85,0.338-1.145,0.338c-0.123,0-0.229-0.017-0.391-0.235c-0.322-0.434-0.207-0.757,0.354-1.642   c0.381-0.601,0.856-1.35,0.523-2.172l-0.076-0.186c-4.711-11.555,2.526-20.592,9.418-26.132L14.884,5.894 M14.917,4.596   L12.34,6.619C-3.725,19.532,1.667,31.568,2.688,34.098c0.363,0.898-2.023,2.323-0.753,4.036c0.353,0.475,0.761,0.639,1.194,0.639   c0.955,0,2.033-0.794,2.918-0.794c0.122,0,0.241,0.015,0.355,0.05C7.876,38.471,10.078,39,12.773,39   c5.465,0,12.954-2.173,20.513-11.639l3.082-4.077L14.917,4.596L14.917,4.596z"/>
</g>
<g>
	<g>
		<g>
			<path style="fill:#A6714E;" d="M34.857,27.287c-1.119,0-4.617-0.896-12.909-9.189c-10.91-10.91-9.084-13.465-9.064-13.49     C14.899,2.547,17.248,1.5,19.859,1.5c6.381,0,12.348,6.197,12.408,6.26c0.083,0.078,6.056,5.691,6.229,11.995     c0.075,2.736-0.958,5.233-3.07,7.421l0,0C35.422,27.176,35.26,27.287,34.857,27.287L34.857,27.287z"/>
			<path style="fill:#7A4F34;" d="M19.859,2c6.153,0,11.988,6.044,12.046,6.105l0.022,0.023l0.023,0.021     c0.059,0.054,5.877,5.513,6.047,11.617c0.071,2.56-0.884,4.904-2.858,6.989c-0.044,0.013-0.133,0.032-0.281,0.032     c-1.057,0-4.395-0.881-12.555-9.042C12.679,8.122,13.2,5.209,13.293,4.905C15.203,2.977,17.412,2,19.859,2 M19.859,1     c-2.461,0-4.999,0.873-7.338,3.264c0,0-2.675,2.439,9.073,14.188c8.071,8.072,11.75,9.335,13.262,9.335     c0.689,0,0.928-0.262,0.928-0.262c8.759-9.072-3.156-20.109-3.156-20.109S26.529,1,19.859,1L19.859,1z"/>
		</g>
	</g>
</g>
</svg>